<svg width="18" height="19" viewBox="0 0 18 19" fill="none" xmlns="http://www.w3.org/2000/svg">
<path d="M6.77244 11.4553C6.47994 11.0278 6.31494 10.5103 6.31494 9.95526C6.31494 8.47026 7.51494 7.27026 8.99994 7.27026C10.4849 7.27026 11.6849 8.47026 11.6849 9.95526C11.6849 11.4403 10.4849 12.6403 8.99994 12.6403" stroke="#054047" stroke-width="1.5" stroke-linecap="round" stroke-linejoin="round"/>
<path d="M13.1699 5.14031C11.9024 4.24031 10.4774 3.75281 8.99988 3.75281C6.35238 3.75281 3.88488 5.31281 2.16738 8.01281C1.49238 9.07031 1.49238 10.8478 2.16738 11.9053C3.88488 14.6053 6.35238 16.1653 8.99988 16.1653C11.6474 16.1653 14.1149 14.6053 15.8324 11.9053C16.5074 10.8478 16.5074 9.07031 15.8324 8.01281" stroke="#054047" stroke-width="1.5" stroke-linecap="round" stroke-linejoin="round"/>
</svg>
